<?xml version="1.0" encoding="UTF-8"?>
<!DOCTYPE svg PUBLIC "-//W3C//DTD SVG 1.1//EN" "http://www.w3.org/Graphics/SVG/1.1/DTD/svg11.dtd">
<!-- Creator: CorelDRAW 2017 -->
<svg xmlns="http://www.w3.org/2000/svg" xml:space="preserve" width="341.5mm" height="229mm" version="1.1" style="shape-rendering:geometricPrecision; text-rendering:geometricPrecision; image-rendering:optimizeQuality; fill-rule:evenodd; clip-rule:evenodd"
viewBox="0 0 34150 22900"
 xmlns:xlink="http://www.w3.org/1999/xlink">
 <defs>
  <style type="text/css">
   <![CDATA[
    .fil6 {fill:#FEFEFE}
    .fil5 {fill:#000099}
    .fil4 {fill:#0066FF}
    .fil3 {fill:#009966}
    .fil2 {fill:red}
    .fil0 {fill:#FF6600}
    .fil1 {fill:white}
   ]]>
  </style>
 </defs>
 <g id="Capa_x0020_1">
  <metadata id="CorelCorpID_0Corel-Layer"/>
  <polygon class="fil0" points="-487,-2055 35507,-2055 35507,4268 18613,4268 18195,4328 17936,4268 -487,4268 "/>
  <polygon class="fil1" points="-487,4268 17793,4268 18208,4330 18899,4268 35550,4268 35550,4703 -487,4703 "/>
  <rect class="fil2" x="-487" y="4703" width="35994" height="4207"/>
  <rect class="fil1" x="-487" y="8910" width="36037" height="435"/>
  <rect class="fil3" x="-487" y="9344" width="35994" height="4207"/>
  <rect class="fil1" x="-487" y="13551" width="36037" height="435"/>
  <rect class="fil4" x="-487" y="13985" width="35994" height="4207"/>
  <rect class="fil1" x="-487" y="18192" width="36037" height="435"/>
  <rect class="fil5" x="-487" y="18627" width="35994" height="7893"/>
  <path class="fil6" d="M12722 23083c0,0 624,-749 754,-1097 130,-348 315,-815 685,-1109 370,-293 924,-609 1489,-696 565,-87 1494,-60 1750,-120 255,-60 630,-174 782,-543 152,-370 120,-956 125,-1396 5,-440 -429,-802 -674,-1022 -245,-220 -899,-535 -1171,-1133 -272,-598 -1032,-1087 -1250,-1380 -217,-293 -312,-402 -372,-619 -60,-217 147,-133 223,-87 76,46 71,163 87,187 16,24 242,133 285,120 43,-14 -16,-277 60,-386 76,-109 280,-5 274,128 -5,133 49,383 101,456 52,73 230,307 253,245 23,-62 -99,-235 18,-231 117,4 274,62 350,231 76,168 109,334 130,364 22,30 250,122 310,27 60,-95 -5,-462 73,-462 79,0 250,43 630,696 380,652 1217,967 1348,1011 130,43 1456,619 1706,696 250,76 761,283 1065,424 304,141 1065,782 1217,880 152,98 1603,326 1717,337 114,11 130,185 196,331 65,147 223,880 185,891 -38,11 -201,16 -576,-277 -375,-293 -587,-685 -603,-728 -16,-43 -65,60 -16,217 49,158 49,342 -5,310 -54,-33 -462,-283 -685,-587 -223,-304 -543,331 -674,810 -130,478 -109,891 402,1152 511,261 956,685 1022,956 47,198 334,1052 282,1675 0,0 -11493,-271 -11493,-271zm6526 -4083c228,-413 217,-880 272,-1054 54,-174 500,-424 1109,-337 609,87 935,337 1087,706 152,369 130,1032 -33,1282 -163,250 -87,696 -1119,967 -1092,287 -1914,-481 -1315,-1565z"/>
  <path class="fil6" d="M25167 19105c0,0 196,174 206,429 11,255 120,516 217,603 98,87 315,-505 522,-636 206,-130 891,-451 1282,-522 391,-71 1032,-130 1299,-255 266,-125 223,-560 -190,-837 -413,-277 -657,-103 -788,-147 -130,-43 -283,-598 -598,-717 -315,-120 -391,-22 -380,98 11,120 136,565 -33,565 -168,0 -272,-103 -527,-114 -255,-11 -223,147 -87,239 136,92 277,217 141,255 -136,38 -549,163 -277,206 272,43 527,315 484,380 -43,65 -331,130 -304,217 27,87 288,250 54,255 -234,5 -315,-38 -380,-71 -65,-33 -638,-79 -641,49z"/>
  <path class="fil6" d="M24668 16767c0,0 -59,-202 186,-196 245,5 272,109 315,206 43,98 331,766 326,978 -5,212 -82,266 -283,136 -202,-131 -415,-835 -544,-1124z"/>
  <path class="fil6" d="M23428 16416c0,0 22,-147 245,-168 223,-22 435,359 478,424 43,65 255,473 272,734 16,261 -147,206 -228,196 -82,-11 -337,-337 -494,-576 -158,-239 -269,-478 -272,-609z"/>
  <path class="fil6" d="M22461 16223c0,0 -43,-337 190,-353 234,-16 321,136 342,234 22,98 255,897 255,1016 0,120 -60,196 -206,174 -147,-22 -429,-467 -581,-1070z"/>
  <path class="fil6" d="M22059 16679c190,130 65,321 -65,331 -130,11 -283,-5 -543,-467 -261,-462 -533,-1011 -152,-1114 0,0 129,-36 221,-28 231,67 237,1070 539,1278z"/>
  <path class="fil6" d="M19861 15187c0,0 147,-196 331,-98 185,98 299,451 359,565 60,114 234,538 315,619 82,82 0,261 -147,234 -147,-27 -516,-522 -630,-755 -114,-234 -255,-364 -228,-565z"/>
  <path class="fil6" d="M18932 14851c0,0 293,130 446,337 152,206 413,717 359,804 -54,87 -255,33 -397,-22 -141,-54 -456,-576 -500,-799 -43,-223 -60,-342 92,-321z"/>
  <path class="fil6" d="M17307 13916c0,0 641,924 869,924 228,0 402,-283 261,-500 -141,-217 -120,-413 152,-370 272,43 1195,43 1293,120 98,76 511,185 641,11 130,-174 467,-22 543,109 76,130 641,348 804,359 163,11 869,652 1348,804 478,152 880,424 1098,511 217,87 565,65 478,-391 -87,-456 -522,-1304 -674,-1587 -152,-283 -1163,-1804 -2586,-2445 -1424,-641 -3260,-1054 -4369,-1163 -1108,-109 -2130,76 -2141,1152 -11,1076 304,1163 750,1402 446,239 837,239 815,413 -22,174 8,179 -144,272 -152,92 133,109 239,122 106,14 304,5 359,35 54,30 215,106 264,223z"/>
  <path class="fil6" d="M25716 15204c0,0 647,1081 880,1190 234,109 174,-484 190,-891 16,-408 -272,-1353 -522,-1962 -250,-609 -924,-1587 -1424,-2130 -830,-903 -2498,-1443 -3684,-1945 -641,-272 -1750,-261 -1913,-250 -163,11 -891,54 -717,-641 174,-696 1130,-2304 1695,-2891 565,-587 978,-1348 1043,-1652 65,-304 130,-2000 130,-2000 0,0 106,-185 106,-372 0,0 -54,71 -158,82 -103,11 130,-291 120,-421 0,0 -136,166 -204,171 -68,5 73,-226 35,-383 0,0 -30,101 -103,152 0,0 54,-185 -33,-413 0,0 -14,158 -101,231 0,0 79,-364 -52,-592 0,0 -24,350 -125,416 0,0 46,-217 -71,-470 0,0 5,204 -310,193 -315,-11 -2432,288 -3051,581 -619,293 -1076,880 -1043,1804 0,0 -38,234 98,174 136,-60 337,-54 429,-120 92,-65 174,-630 587,-766 413,-136 842,-27 891,-5 49,22 -315,228 -326,299 -11,71 261,114 375,103 114,-11 -11,109 76,125 87,16 299,-76 375,0 76,76 657,804 657,989 0,185 315,266 456,43 141,-223 125,-462 65,-793 -60,-331 -120,-728 -505,-831 -386,-103 -239,-467 -38,-587 201,-120 690,-103 902,196 1126,1587 -864,3448 -1483,4586 -467,859 -663,1424 -804,1924 -141,500 -478,1032 -76,1141 402,109 1174,435 1478,489 2580,461 4698,2260 5814,4570 158,326 337,657 337,657z"/>
  <path class="fil6" d="M17729 3548c0,0 -248,-100 -456,-125 -1272,-150 -1193,819 -1641,2003 -435,1150 -854,2441 -1011,2991 -87,304 -446,1282 -554,1967 -109,685 -163,1532 -120,1934 43,402 245,456 315,451 71,-5 -22,-185 163,-299 185,-114 82,-245 82,-462 0,-217 16,-1103 255,-1494 239,-391 685,-978 793,-1576 109,-598 511,-1206 706,-1674 196,-467 413,-1293 576,-1554 163,-261 380,-1022 598,-1022 217,0 65,304 -33,522 -98,217 -706,1598 -793,1739 -241,391 -808,1553 -674,2021 43,152 435,196 587,-130 152,-326 848,-1587 924,-1695 76,-109 956,-1924 1141,-2260 185,-337 489,-647 467,-907 -22,-261 -141,-603 -435,-782 -505,-309 -882,353 -891,353zm156 541c0,0 152,27 239,-87 87,-114 283,-418 375,-429 92,-11 179,283 136,402 -43,120 -494,560 -750,114z"/>
  <path class="fil6" d="M17460 2705c0,0 56,76 107,23 52,-53 132,-42 196,-19 64,23 216,117 117,201 -99,84 -221,99 -299,99 -77,0 -379,-259 -121,-304z"/>
 </g>
</svg>
